<svg class="chart" width="650" height="142" version="1.1" xmlns="http://www.w3.org/2000/svg"><g transform="translate(10, 50)"><g class="x axis" transform="translate(150, 0)"><g class="tick" style="opacity: 1;" transform="translate(0,0)"><line y2="-6" x2="0"></line><text dy="0em" style="text-anchor: middle;" y="-9" x="0">0</text><line x1="0" x2="0" y1="0" y2="72"></line></g><g class="tick" style="opacity: 1;" transform="translate(36.36363636363637,0)"><line y2="-6" x2="0"></line><text dy="0em" style="text-anchor: middle;" y="-9" x="0">50</text><line x1="0" x2="0" y1="0" y2="72"></line></g><g class="tick" style="opacity: 1;" transform="translate(72.72727272727273,0)"><line y2="-6" x2="0"></line><text dy="0em" style="text-anchor: middle;" y="-9" x="0">100</text><line x1="0" x2="0" y1="0" y2="72"></line></g><g class="tick" style="opacity: 1;" transform="translate(109.09090909090908,0)"><line y2="-6" x2="0"></line><text dy="0em" style="text-anchor: middle;" y="-9" x="0">150</text><line x1="0" x2="0" y1="0" y2="72"></line></g><g class="tick" style="opacity: 1;" transform="translate(145.45454545454547,0)"><line y2="-6" x2="0"></line><text dy="0em" style="text-anchor: middle;" y="-9" x="0">200</text><line x1="0" x2="0" y1="0" y2="72"></line></g><g class="tick" style="opacity: 1;" transform="translate(181.8181818181818,0)"><line y2="-6" x2="0"></line><text dy="0em" style="text-anchor: middle;" y="-9" x="0">250</text><line x1="0" x2="0" y1="0" y2="72"></line></g><g class="tick" style="opacity: 1;" transform="translate(218.18181818181816,0)"><line y2="-6" x2="0"></line><text dy="0em" style="text-anchor: middle;" y="-9" x="0">300</text><line x1="0" x2="0" y1="0" y2="72"></line></g><g class="tick" style="opacity: 1;" transform="translate(254.54545454545453,0)"><line y2="-6" x2="0"></line><text dy="0em" style="text-anchor: middle;" y="-9" x="0">350</text><line x1="0" x2="0" y1="0" y2="72"></line></g><g class="tick" style="opacity: 1;" transform="translate(290.90909090909093,0)"><line y2="-6" x2="0"></line><text dy="0em" style="text-anchor: middle;" y="-9" x="0">400</text><line x1="0" x2="0" y1="0" y2="72"></line></g><g class="tick" style="opacity: 1;" transform="translate(327.2727272727273,0)"><line y2="-6" x2="0"></line><text dy="0em" style="text-anchor: middle;" y="-9" x="0">450</text><line x1="0" x2="0" y1="0" y2="72"></line></g><g class="tick" style="opacity: 1;" transform="translate(363.6363636363636,0)"><line y2="-6" x2="0"></line><text dy="0em" style="text-anchor: middle;" y="-9" x="0">500</text><line x1="0" x2="0" y1="0" y2="72"></line></g><g class="tick" style="opacity: 1;" transform="translate(400,0)"><line y2="-6" x2="0"></line><text dy="0em" style="text-anchor: middle;" y="-9" x="0">550</text><line x1="0" x2="0" y1="0" y2="72"></line></g><path class="domain" d="M0,-6V0H400V-6"></path><text transform="rotate(0) translate(0, -50)" y="6" dy=".71em" style="text-anchor: right;">Amount (in Dollars)</text></g><rect x="150" y="2" name="Entertainment" width="400" height="20" style="fill: steelblue;" class="bar"></rect><rect x="150" y="26" name="Groceries" width="72.72727272727273" height="20" style="fill: steelblue;" class="bar"></rect><rect x="150" y="50" name="Travel" width="72.72727272727273" height="20" style="fill: steelblue;" class="bar"></rect><text x="550" y="12" dx="5" dy=".36em" text-anchor="left" class="score">$550</text><text x="222.72727272727275" y="36" dx="5" dy=".36em" text-anchor="left" class="score">$100</text><text x="222.72727272727275" y="60" dx="5" dy=".36em" text-anchor="left" class="score">$100</text><text x="75" y="12" dy=".36em" text-anchor="middle">Entertainment</text><text x="75" y="36" dy=".36em" text-anchor="middle">Groceries</text><text x="75" y="60" dy=".36em" text-anchor="middle">Travel</text></g></svg>