<svg class="chart" width="650" height="118" version="1.1" xmlns="http://www.w3.org/2000/svg"><g transform="translate(10, 50)"><g class="x axis" transform="translate(150, 0)"><g class="tick" style="opacity: 1;" transform="translate(0,0)"><line y2="-6" x2="0"></line><text dy="0em" style="text-anchor: middle;" y="-9" x="0">0</text><line x1="0" x2="0" y1="0" y2="48"></line></g><g class="tick" style="opacity: 1;" transform="translate(40,0)"><line y2="-6" x2="0"></line><text dy="0em" style="text-anchor: middle;" y="-9" x="0">10</text><line x1="0" x2="0" y1="0" y2="48"></line></g><g class="tick" style="opacity: 1;" transform="translate(80,0)"><line y2="-6" x2="0"></line><text dy="0em" style="text-anchor: middle;" y="-9" x="0">20</text><line x1="0" x2="0" y1="0" y2="48"></line></g><g class="tick" style="opacity: 1;" transform="translate(120,0)"><line y2="-6" x2="0"></line><text dy="0em" style="text-anchor: middle;" y="-9" x="0">30</text><line x1="0" x2="0" y1="0" y2="48"></line></g><g class="tick" style="opacity: 1;" transform="translate(160,0)"><line y2="-6" x2="0"></line><text dy="0em" style="text-anchor: middle;" y="-9" x="0">40</text><line x1="0" x2="0" y1="0" y2="48"></line></g><g class="tick" style="opacity: 1;" transform="translate(200,0)"><line y2="-6" x2="0"></line><text dy="0em" style="text-anchor: middle;" y="-9" x="0">50</text><line x1="0" x2="0" y1="0" y2="48"></line></g><g class="tick" style="opacity: 1;" transform="translate(240,0)"><line y2="-6" x2="0"></line><text dy="0em" style="text-anchor: middle;" y="-9" x="0">60</text><line x1="0" x2="0" y1="0" y2="48"></line></g><g class="tick" style="opacity: 1;" transform="translate(280,0)"><line y2="-6" x2="0"></line><text dy="0em" style="text-anchor: middle;" y="-9" x="0">70</text><line x1="0" x2="0" y1="0" y2="48"></line></g><g class="tick" style="opacity: 1;" transform="translate(320,0)"><line y2="-6" x2="0"></line><text dy="0em" style="text-anchor: middle;" y="-9" x="0">80</text><line x1="0" x2="0" y1="0" y2="48"></line></g><g class="tick" style="opacity: 1;" transform="translate(360,0)"><line y2="-6" x2="0"></line><text dy="0em" style="text-anchor: middle;" y="-9" x="0">90</text><line x1="0" x2="0" y1="0" y2="48"></line></g><g class="tick" style="opacity: 1;" transform="translate(400,0)"><line y2="-6" x2="0"></line><text dy="0em" style="text-anchor: middle;" y="-9" x="0">100</text><line x1="0" x2="0" y1="0" y2="48"></line></g><path class="domain" d="M0,-6V0H400V-6"></path><text transform="rotate(0) translate(0, -50)" y="6" dy=".71em" style="text-anchor: right;">Amount (in Dollars)</text></g><rect x="150" y="2" name="Entertainment" width="400" height="20" style="fill: steelblue;" class="bar"></rect><rect x="150" y="26" name="Groceries" width="200" height="20" style="fill: steelblue;" class="bar"></rect><text x="550" y="12" dx="5" dy=".36em" text-anchor="left" class="score">$100</text><text x="350" y="36" dx="5" dy=".36em" text-anchor="left" class="score">$50</text><text x="75" y="12" dy=".36em" text-anchor="middle">Entertainment</text><text x="75" y="36" dy=".36em" text-anchor="middle">Groceries</text></g></svg>