<svg width="700" height="450" version="1.1" xmlns="http://www.w3.org/2000/svg"><g transform="translate(233.33333333333334,225)"><g class="arc"><path d="M8.572527594031473e-15,-140A140,140 0 1,1 -139.2367392426537,14.598987809888092L0,0Z" id="arc-0" style="fill: #c2ddef;"></path><text transform="translate(52.01425080372726,46.84567977227952)" dy=".35em" style="text-anchor: middle;">73.33%</text></g><g class="arc"><path d="M-139.2367392426537,14.598987809888092A140,140 0 0,1 -104.02850160745449,-93.69135954455908L0,0Z" id="arc-1" style="fill: #aed1ea;"></path><text transform="translate(-66.5698771667824,-21.643739371917746)" dy=".35em" style="text-anchor: middle;">13.33%</text></g><g class="arc"><path d="M-104.02850160745449,-93.69135954455908A140,140 0 0,1 9.862739597592311e-14,-140L0,0Z" id="arc-2" style="fill: #9ac6e5;"></path><text transform="translate(-28.467546574480473,-63.94997100882678)" dy=".35em" style="text-anchor: middle;">13.33%</text></g><g class="legend" legend-id="0" transform="translate(-60,-70)"><rect x="350" width="18" height="18" style="fill: #c2ddef;"></rect><text x="350" y="9" dy=".35em" style="text-anchor: end;">Entertainment</text></g><g class="legend" legend-id="1" transform="translate(-60,-50)"><rect x="350" width="18" height="18" style="fill: #aed1ea;"></rect><text x="350" y="9" dy=".35em" style="text-anchor: end;">Groceries</text></g><g class="legend" legend-id="2" transform="translate(-60,-30)"><rect x="350" width="18" height="18" style="fill: #9ac6e5;"></rect><text x="350" y="9" dy=".35em" style="text-anchor: end;">Travel</text></g></g></svg>