<svg width="700" height="450" version="1.1" xmlns="http://www.w3.org/2000/svg"><g transform="translate(233.33333333333334,225)"><g class="arc"><path d="M8.572527594031473e-15,-140A140,140 0 0,1 0.615750174876998,-139.99864589245905L0,0Z" id="arc-0" style="fill: #c2ddef;"></path><text transform="translate(0.15393791594915318,-69.99983073635273)" dy=".35em" style="text-anchor: middle;">0.07%</text></g><g class="arc"><path d="M0.615750174876998,-139.99864589245905A140,140 0 0,1 6.85849205502584,-139.83190296470667L0,0Z" id="arc-1" style="fill: #aed1ea;"></path><text transform="translate(1.8690254832936652,-69.97504372090667)" dy=".35em" style="text-anchor: middle;">0.71%</text></g><g class="arc"><path d="M6.85849205502584,-139.83190296470667A140,140 0 1,1 -136.91010757630107,29.251024656337563L0,0Z" id="arc-2" style="fill: #9ac6e5;"></path><text transform="translate(53.3282635619922,45.344198145547736)" dy=".35em" style="text-anchor: middle;">70.87%</text></g><g class="arc"><path d="M-136.91010757630107,29.251024656337563A140,140 0 0,1 9.862739597592311e-14,-140L0,0Z" id="arc-3" style="fill: #85bae0;"></path><text transform="translate(-54.42327564090482,-44.02393744900717)" dy=".35em" style="text-anchor: middle;">28.35%</text></g><g class="legend" legend-id="0" transform="translate(-60,-70)"><rect x="350" width="18" height="18" style="fill: #c2ddef;"></rect><text x="350" y="9" dy=".35em" style="text-anchor: end;">Entertainment</text></g><g class="legend" legend-id="1" transform="translate(-60,-50)"><rect x="350" width="18" height="18" style="fill: #aed1ea;"></rect><text x="350" y="9" dy=".35em" style="text-anchor: end;">Food and Drinks</text></g><g class="legend" legend-id="2" transform="translate(-60,-30)"><rect x="350" width="18" height="18" style="fill: #9ac6e5;"></rect><text x="350" y="9" dy=".35em" style="text-anchor: end;">Fuel</text></g><g class="legend" legend-id="3" transform="translate(-60,-10)"><rect x="350" width="18" height="18" style="fill: #85bae0;"></rect><text x="350" y="9" dy=".35em" style="text-anchor: end;">Health</text></g></g></svg>