<svg width="600" height="270" version="1.1" xmlns="http://www.w3.org/2000/svg"><g transform="translate(50,30)"><path class="line" d="M0,168.41584158415841L265,168.20792079207922L530,0" stroke="steelblue" fill="none" stroke-width="2"></path><g class="x axis" transform="translate(0,210)" stroke="black" fill="none" stroke-width="1" shape-rendering="crispEdges"><g class="tick" style="opacity: 1;" transform="translate(0,0)"><line y2="6" x2="0"></line><text dy=".71em" style="text-anchor: middle;" y="9" x="0">Mon 29</text></g><g class="tick" style="opacity: 1;" transform="translate(132.5,0)"><line y2="6" x2="0"></line><text dy=".71em" style="text-anchor: middle;" y="9" x="0">12 PM</text></g><g class="tick" style="opacity: 1;" transform="translate(265,0)"><line y2="6" x2="0"></line><text dy=".71em" style="text-anchor: middle;" y="9" x="0">Tue 30</text></g><g class="tick" style="opacity: 1;" transform="translate(397.5,0)"><line y2="6" x2="0"></line><text dy=".71em" style="text-anchor: middle;" y="9" x="0">12 PM</text></g><g class="tick" style="opacity: 1;" transform="translate(530,0)"><line y2="6" x2="0"></line><text dy=".71em" style="text-anchor: middle;" y="9" x="0">Wed 31</text></g><path class="domain" d="M0,6V0H530V6"></path></g><g class="y axis" stroke="black" fill="none" stroke-width="1" shape-rendering="crispEdges"><g class="tick" style="opacity: 1;" transform="translate(0,210)"><line x2="-6" y2="0"></line><text dy=".32em" style="text-anchor: end;" x="-9" y="0">0</text></g><g class="tick" style="opacity: 1;" transform="translate(0,168.41584158415841)"><line x2="-6" y2="0"></line><text dy=".32em" style="text-anchor: end;" x="-9" y="0">2,000</text></g><g class="tick" style="opacity: 1;" transform="translate(0,126.83168316831683)"><line x2="-6" y2="0"></line><text dy=".32em" style="text-anchor: end;" x="-9" y="0">4,000</text></g><g class="tick" style="opacity: 1;" transform="translate(0,85.24752475247526)"><line x2="-6" y2="0"></line><text dy=".32em" style="text-anchor: end;" x="-9" y="0">6,000</text></g><g class="tick" style="opacity: 1;" transform="translate(0,43.66336633663366)"><line x2="-6" y2="0"></line><text dy=".32em" style="text-anchor: end;" x="-9" y="0">8,000</text></g><g class="tick" style="opacity: 1;" transform="translate(0,2.079207920792081)"><line x2="-6" y2="0"></line><text dy=".32em" style="text-anchor: end;" x="-9" y="0">10,000</text></g><path class="domain" d="M-6,0H0V210H-6"></path></g></g></svg>