<svg class="chart" width="650" height="310" version="1.1" xmlns="http://www.w3.org/2000/svg"><g transform="translate(10, 50)"><g class="x axis" transform="translate(150, 0)"><g class="tick" style="opacity: 1;" transform="translate(0,0)"><line y2="-6" x2="0"></line><text dy="0em" style="text-anchor: middle;" y="-9" x="0">0</text><line x1="0" x2="0" y1="0" y2="240"></line></g><g class="tick" style="opacity: 1;" transform="translate(50,0)"><line y2="-6" x2="0"></line><text dy="0em" style="text-anchor: middle;" y="-9" x="0">500</text><line x1="0" x2="0" y1="0" y2="240"></line></g><g class="tick" style="opacity: 1;" transform="translate(100,0)"><line y2="-6" x2="0"></line><text dy="0em" style="text-anchor: middle;" y="-9" x="0">1000</text><line x1="0" x2="0" y1="0" y2="240"></line></g><g class="tick" style="opacity: 1;" transform="translate(150,0)"><line y2="-6" x2="0"></line><text dy="0em" style="text-anchor: middle;" y="-9" x="0">1.5K</text><line x1="0" x2="0" y1="0" y2="240"></line></g><g class="tick" style="opacity: 1;" transform="translate(200,0)"><line y2="-6" x2="0"></line><text dy="0em" style="text-anchor: middle;" y="-9" x="0">2K</text><line x1="0" x2="0" y1="0" y2="240"></line></g><g class="tick" style="opacity: 1;" transform="translate(250,0)"><line y2="-6" x2="0"></line><text dy="0em" style="text-anchor: middle;" y="-9" x="0">2.5K</text><line x1="0" x2="0" y1="0" y2="240"></line></g><g class="tick" style="opacity: 1;" transform="translate(300,0)"><line y2="-6" x2="0"></line><text dy="0em" style="text-anchor: middle;" y="-9" x="0">3K</text><line x1="0" x2="0" y1="0" y2="240"></line></g><g class="tick" style="opacity: 1;" transform="translate(350,0)"><line y2="-6" x2="0"></line><text dy="0em" style="text-anchor: middle;" y="-9" x="0">3.5K</text><line x1="0" x2="0" y1="0" y2="240"></line></g><g class="tick" style="opacity: 1;" transform="translate(400,0)"><line y2="-6" x2="0"></line><text dy="0em" style="text-anchor: middle;" y="-9" x="0">4K</text><line x1="0" x2="0" y1="0" y2="240"></line></g><path class="domain" d="M0,-6V0H400V-6"></path><text transform="rotate(0) translate(0, -50)" y="6" dy=".71em" style="text-anchor: right;">Amount (in Dollars)</text></g><rect x="150" y="2" name="Bills " width="400" height="20" style="fill: steelblue;" class="bar"></rect><rect x="150" y="26" name="Groceries" width="55.00000000000001" height="20" style="fill: steelblue;" class="bar"></rect><rect x="150" y="50" name="Travel" width="3.9" height="20" style="fill: steelblue;" class="bar"></rect><rect x="150" y="74" name="Food &amp; Drinks" width="2" height="20" style="fill: steelblue;" class="bar"></rect><rect x="150" y="98" name="Miscellaneous" width="0.5" height="20" style="fill: steelblue;" class="bar"></rect><rect x="150" y="122" name="Investments" width="0.5" height="20" style="fill: steelblue;" class="bar"></rect><rect x="150" y="146" name="Health" width="0.5" height="20" style="fill: steelblue;" class="bar"></rect><rect x="150" y="170" name="Shopping" width="0.5" height="20" style="fill: steelblue;" class="bar"></rect><rect x="150" y="194" name="Entertainment" width="0.5" height="20" style="fill: steelblue;" class="bar"></rect><rect x="150" y="218" name="Fuel" width="0.5" height="20" style="fill: steelblue;" class="bar"></rect><text x="550" y="12" dx="5" dy=".36em" text-anchor="left" class="score">$4000</text><text x="205" y="36" dx="5" dy=".36em" text-anchor="left" class="score">$550</text><text x="153.9" y="60" dx="5" dy=".36em" text-anchor="left" class="score">$39</text><text x="152" y="84" dx="5" dy=".36em" text-anchor="left" class="score">$20</text><text x="150.5" y="108" dx="5" dy=".36em" text-anchor="left" class="score">$5</text><text x="150.5" y="132" dx="5" dy=".36em" text-anchor="left" class="score">$5</text><text x="150.5" y="156" dx="5" dy=".36em" text-anchor="left" class="score">$5</text><text x="150.5" y="180" dx="5" dy=".36em" text-anchor="left" class="score">$5</text><text x="150.5" y="204" dx="5" dy=".36em" text-anchor="left" class="score">$5</text><text x="150.5" y="228" dx="5" dy=".36em" text-anchor="left" class="score">$5</text><text x="75" y="12" dy=".36em" text-anchor="middle">Bills </text><text x="75" y="36" dy=".36em" text-anchor="middle">Groceries</text><text x="75" y="60" dy=".36em" text-anchor="middle">Travel</text><text x="75" y="84" dy=".36em" text-anchor="middle">Food &amp; Drinks</text><text x="75" y="108" dy=".36em" text-anchor="middle">Miscellaneous</text><text x="75" y="132" dy=".36em" text-anchor="middle">Investments</text><text x="75" y="156" dy=".36em" text-anchor="middle">Health</text><text x="75" y="180" dy=".36em" text-anchor="middle">Shopping</text><text x="75" y="204" dy=".36em" text-anchor="middle">Entertainment</text><text x="75" y="228" dy=".36em" text-anchor="middle">Fuel</text></g></svg>