<svg class="chart" width="650" height="310" version="1.1" xmlns="http://www.w3.org/2000/svg"><g transform="translate(10, 50)"><g class="x axis" transform="translate(150, 0)"><g class="tick" style="opacity: 1;" transform="translate(0,0)"><line y2="-6" x2="0"></line><text dy="0em" style="text-anchor: middle;" y="-9" x="0">0</text><line x1="0" x2="0" y1="0" y2="240"></line></g><g class="tick" style="opacity: 1;" transform="translate(36.36363636363637,0)"><line y2="-6" x2="0"></line><text dy="0em" style="text-anchor: middle;" y="-9" x="0">50</text><line x1="0" x2="0" y1="0" y2="240"></line></g><g class="tick" style="opacity: 1;" transform="translate(72.72727272727273,0)"><line y2="-6" x2="0"></line><text dy="0em" style="text-anchor: middle;" y="-9" x="0">100</text><line x1="0" x2="0" y1="0" y2="240"></line></g><g class="tick" style="opacity: 1;" transform="translate(109.09090909090908,0)"><line y2="-6" x2="0"></line><text dy="0em" style="text-anchor: middle;" y="-9" x="0">150</text><line x1="0" x2="0" y1="0" y2="240"></line></g><g class="tick" style="opacity: 1;" transform="translate(145.45454545454547,0)"><line y2="-6" x2="0"></line><text dy="0em" style="text-anchor: middle;" y="-9" x="0">200</text><line x1="0" x2="0" y1="0" y2="240"></line></g><g class="tick" style="opacity: 1;" transform="translate(181.8181818181818,0)"><line y2="-6" x2="0"></line><text dy="0em" style="text-anchor: middle;" y="-9" x="0">250</text><line x1="0" x2="0" y1="0" y2="240"></line></g><g class="tick" style="opacity: 1;" transform="translate(218.18181818181816,0)"><line y2="-6" x2="0"></line><text dy="0em" style="text-anchor: middle;" y="-9" x="0">300</text><line x1="0" x2="0" y1="0" y2="240"></line></g><g class="tick" style="opacity: 1;" transform="translate(254.54545454545453,0)"><line y2="-6" x2="0"></line><text dy="0em" style="text-anchor: middle;" y="-9" x="0">350</text><line x1="0" x2="0" y1="0" y2="240"></line></g><g class="tick" style="opacity: 1;" transform="translate(290.90909090909093,0)"><line y2="-6" x2="0"></line><text dy="0em" style="text-anchor: middle;" y="-9" x="0">400</text><line x1="0" x2="0" y1="0" y2="240"></line></g><g class="tick" style="opacity: 1;" transform="translate(327.2727272727273,0)"><line y2="-6" x2="0"></line><text dy="0em" style="text-anchor: middle;" y="-9" x="0">450</text><line x1="0" x2="0" y1="0" y2="240"></line></g><g class="tick" style="opacity: 1;" transform="translate(363.6363636363636,0)"><line y2="-6" x2="0"></line><text dy="0em" style="text-anchor: middle;" y="-9" x="0">500</text><line x1="0" x2="0" y1="0" y2="240"></line></g><g class="tick" style="opacity: 1;" transform="translate(400,0)"><line y2="-6" x2="0"></line><text dy="0em" style="text-anchor: middle;" y="-9" x="0">550</text><line x1="0" x2="0" y1="0" y2="240"></line></g><path class="domain" d="M0,-6V0H400V-6"></path><text transform="rotate(0) translate(0, -50)" y="6" dy=".71em" style="text-anchor: right;">Amount (in Dollars)</text></g><rect x="150" y="2" name="Groceries" width="400" height="20" style="fill: steelblue;" class="bar"></rect><rect x="150" y="26" name="Bills " width="290.90909090909093" height="20" style="fill: steelblue;" class="bar"></rect><rect x="150" y="50" name="Travel" width="28.363636363636363" height="20" style="fill: steelblue;" class="bar"></rect><rect x="150" y="74" name="Food &amp; Drinks" width="14.545454545454545" height="20" style="fill: steelblue;" class="bar"></rect><rect x="150" y="98" name="Miscellaneous" width="3.6363636363636362" height="20" style="fill: steelblue;" class="bar"></rect><rect x="150" y="122" name="Investments" width="3.6363636363636362" height="20" style="fill: steelblue;" class="bar"></rect><rect x="150" y="146" name="Health" width="3.6363636363636362" height="20" style="fill: steelblue;" class="bar"></rect><rect x="150" y="170" name="Shopping" width="3.6363636363636362" height="20" style="fill: steelblue;" class="bar"></rect><rect x="150" y="194" name="Entertainment" width="3.6363636363636362" height="20" style="fill: steelblue;" class="bar"></rect><rect x="150" y="218" name="Fuel" width="3.6363636363636362" height="20" style="fill: steelblue;" class="bar"></rect><text x="550" y="12" dx="5" dy=".36em" text-anchor="left" class="score">$550</text><text x="440.90909090909093" y="36" dx="5" dy=".36em" text-anchor="left" class="score">$400</text><text x="178.36363636363637" y="60" dx="5" dy=".36em" text-anchor="left" class="score">$39</text><text x="164.54545454545453" y="84" dx="5" dy=".36em" text-anchor="left" class="score">$20</text><text x="153.63636363636363" y="108" dx="5" dy=".36em" text-anchor="left" class="score">$5</text><text x="153.63636363636363" y="132" dx="5" dy=".36em" text-anchor="left" class="score">$5</text><text x="153.63636363636363" y="156" dx="5" dy=".36em" text-anchor="left" class="score">$5</text><text x="153.63636363636363" y="180" dx="5" dy=".36em" text-anchor="left" class="score">$5</text><text x="153.63636363636363" y="204" dx="5" dy=".36em" text-anchor="left" class="score">$5</text><text x="153.63636363636363" y="228" dx="5" dy=".36em" text-anchor="left" class="score">$5</text><text x="75" y="12" dy=".36em" text-anchor="middle">Groceries</text><text x="75" y="36" dy=".36em" text-anchor="middle">Bills </text><text x="75" y="60" dy=".36em" text-anchor="middle">Travel</text><text x="75" y="84" dy=".36em" text-anchor="middle">Food &amp; Drinks</text><text x="75" y="108" dy=".36em" text-anchor="middle">Miscellaneous</text><text x="75" y="132" dy=".36em" text-anchor="middle">Investments</text><text x="75" y="156" dy=".36em" text-anchor="middle">Health</text><text x="75" y="180" dy=".36em" text-anchor="middle">Shopping</text><text x="75" y="204" dy=".36em" text-anchor="middle">Entertainment</text><text x="75" y="228" dy=".36em" text-anchor="middle">Fuel</text></g></svg>