<svg width="600" height="270" version="1.1" xmlns="http://www.w3.org/2000/svg"><g transform="translate(50,30)"><path class="line" d="M530,141.998800239952L75.71428571428571,125.59688062387524L63.095238095238095,97.00059988002398L50.476190476190474,85.28494301139771L12.619047619047619,45.88002399520094L0,0" stroke="steelblue" fill="none" stroke-width="2"></path><g class="x axis" transform="translate(0,210)" stroke="black" fill="none" stroke-width="1" shape-rendering="crispEdges"><g class="tick" style="opacity: 1;" transform="translate(0,0)"><line y2="6" x2="0"></line><text dy=".71em" style="text-anchor: middle;" y="9" x="0">May 22</text></g><g class="tick" style="opacity: 1;" transform="translate(88.33333333333333,0)"><line y2="6" x2="0"></line><text dy=".71em" style="text-anchor: middle;" y="9" x="0">May 29</text></g><g class="tick" style="opacity: 1;" transform="translate(176.66666666666666,0)"><line y2="6" x2="0"></line><text dy=".71em" style="text-anchor: middle;" y="9" x="0">Jun 05</text></g><g class="tick" style="opacity: 1;" transform="translate(265,0)"><line y2="6" x2="0"></line><text dy=".71em" style="text-anchor: middle;" y="9" x="0">Jun 12</text></g><g class="tick" style="opacity: 1;" transform="translate(353.3333333333333,0)"><line y2="6" x2="0"></line><text dy=".71em" style="text-anchor: middle;" y="9" x="0">Jun 19</text></g><g class="tick" style="opacity: 1;" transform="translate(441.6666666666667,0)"><line y2="6" x2="0"></line><text dy=".71em" style="text-anchor: middle;" y="9" x="0">Jun 26</text></g><g class="tick" style="opacity: 1;" transform="translate(530,0)"><line y2="6" x2="0"></line><text dy=".71em" style="text-anchor: middle;" y="9" x="0">Jul 03</text></g><path class="domain" d="M0,6V0H530V6"></path></g><g class="y axis" stroke="black" fill="none" stroke-width="1" shape-rendering="crispEdges"><g class="tick" style="opacity: 1;" transform="translate(0,210)"><line x2="-6" y2="0"></line><text dy=".32em" style="text-anchor: end;" x="-9" y="0">0</text></g><g class="tick" style="opacity: 1;" transform="translate(0,147.01259748050387)"><line x2="-6" y2="0"></line><text dy=".32em" style="text-anchor: end;" x="-9" y="0">50</text></g><g class="tick" style="opacity: 1;" transform="translate(0,84.02519496100778)"><line x2="-6" y2="0"></line><text dy=".32em" style="text-anchor: end;" x="-9" y="0">100</text></g><g class="tick" style="opacity: 1;" transform="translate(0,21.03779244151169)"><line x2="-6" y2="0"></line><text dy=".32em" style="text-anchor: end;" x="-9" y="0">150</text></g><path class="domain" d="M-6,0H0V210H-6"></path></g></g></svg>