<svg width="700" height="450" version="1.1" xmlns="http://www.w3.org/2000/svg"><g transform="translate(233.33333333333334,225)"><g class="arc"><path d="M8.572527594031473e-15,-140A140,140 0 0,1 8.790672734103893,-139.72374197995802L0,0Z" id="arc-0" style="fill: #c2ddef;"></path><text transform="translate(2.1987531354689875,-69.96545922560121)" dy=".35em" style="text-anchor: middle;">1%</text></g><g class="arc"><path d="M8.790672734103893,-139.72374197995802A140,140 0 0,1 89.23935856481657,-107.8718539886105L0,0Z" id="arc-1" style="fill: #aed1ea;"></path><text transform="translate(25.768718687927468,-65.0843540121776)" dy=".35em" style="text-anchor: middle;">10%</text></g><g class="arc"><path d="M89.23935856481657,-107.8718539886105A140,140 0 0,1 -5.3599961784977293e-14,140L0,0Z" id="arc-2" style="fill: #9ac6e5;"></path><text transform="translate(65.86165382679577,23.71165441717041)" dy=".35em" style="text-anchor: middle;">39%</text></g><g class="arc"><path d="M-5.3599961784977293e-14,140A140,140 0 0,1 -133.14791228132148,43.262379212492654L0,0Z" id="arc-3" style="fill: #85bae0;"></path><text transform="translate(-41.144967660473114,56.63118960624632)" dy=".35em" style="text-anchor: middle;">20%</text></g><g class="arc"><path d="M-133.14791228132148,43.262379212492654A140,140 0 0,1 -140,1.7145055188062946e-14L0,0Z" id="arc-4" style="fill: #71afda;"></path><text transform="translate(-69.13818384165964,10.950412552816168)" dy=".35em" style="text-anchor: middle;">5%</text></g><g class="arc"><path d="M-140,1.7145055188062946e-14A140,140 0 0,1 -133.1479122813215,-43.26237921249262L0,0Z" id="arc-5" style="fill: #5da3d5;"></path><text transform="translate(-69.13818384165964,-10.95041255281615)" dy=".35em" style="text-anchor: middle;">5%</text></g><g class="arc"><path d="M-133.1479122813215,-43.26237921249262A140,140 0 0,1 -113.26237921249265,-82.28993532094623L0,0Z" id="arc-6" style="fill: #4998d0;"></path><text transform="translate(-62.37045669318575,-31.77933498176827)" dy=".35em" style="text-anchor: middle;">5%</text></g><g class="arc"><path d="M-113.26237921249265,-82.28993532094623A140,140 0 0,1 -82.28993532094626,-113.26237921249263L0,0Z" id="arc-7" style="fill: #348ccb;"></path><text transform="translate(-49.497474683058336,-49.49747468305832)" dy=".35em" style="text-anchor: middle;">5%</text></g><g class="arc"><path d="M-82.28993532094626,-113.26237921249263A140,140 0 0,1 -43.26237921249266,-133.14791228132148L0,0Z" id="arc-8" style="fill: #2f7eb6;"></path><text transform="translate(-31.779334981768283,-62.370456693185744)" dy=".35em" style="text-anchor: middle;">5%</text></g><g class="arc"><path d="M-43.26237921249266,-133.14791228132148A140,140 0 0,1 -2.5717582782094416e-14,-140L0,0Z" id="arc-9" style="fill: #25628e;"></path><text transform="translate(-10.950412552816173,-69.13818384165964)" dy=".35em" style="text-anchor: middle;">5%</text></g><g class="legend" legend-id="0" transform="translate(-60,-70)"><rect x="350" width="18" height="18" style="fill: #c2ddef;"></rect><text x="350" y="9" dy=".35em" style="text-anchor: end;">Bills </text></g><g class="legend" legend-id="1" transform="translate(-60,-50)"><rect x="350" width="18" height="18" style="fill: #aed1ea;"></rect><text x="350" y="9" dy=".35em" style="text-anchor: end;">Groceries</text></g><g class="legend" legend-id="2" transform="translate(-60,-30)"><rect x="350" width="18" height="18" style="fill: #9ac6e5;"></rect><text x="350" y="9" dy=".35em" style="text-anchor: end;">Travel</text></g><g class="legend" legend-id="3" transform="translate(-60,-10)"><rect x="350" width="18" height="18" style="fill: #85bae0;"></rect><text x="350" y="9" dy=".35em" style="text-anchor: end;">Food &amp; Drinks</text></g><g class="legend" legend-id="4" transform="translate(-60,10)"><rect x="350" width="18" height="18" style="fill: #71afda;"></rect><text x="350" y="9" dy=".35em" style="text-anchor: end;">Miscellaneous</text></g><g class="legend" legend-id="5" transform="translate(-60,30)"><rect x="350" width="18" height="18" style="fill: #5da3d5;"></rect><text x="350" y="9" dy=".35em" style="text-anchor: end;">Investments</text></g><g class="legend" legend-id="6" transform="translate(-60,50)"><rect x="350" width="18" height="18" style="fill: #4998d0;"></rect><text x="350" y="9" dy=".35em" style="text-anchor: end;">Health</text></g><g class="legend" legend-id="7" transform="translate(-60,70)"><rect x="350" width="18" height="18" style="fill: #348ccb;"></rect><text x="350" y="9" dy=".35em" style="text-anchor: end;">Shopping</text></g><g class="legend" legend-id="8" transform="translate(-60,90)"><rect x="350" width="18" height="18" style="fill: #2f7eb6;"></rect><text x="350" y="9" dy=".35em" style="text-anchor: end;">Entertainment</text></g><g class="legend" legend-id="9" transform="translate(-60,110)"><rect x="350" width="18" height="18" style="fill: #25628e;"></rect><text x="350" y="9" dy=".35em" style="text-anchor: end;">Fuel</text></g></g></svg>